<svg width="88" height="88" viewBox="0 0 88 88" fill="none" xmlns="http://www.w3.org/2000/svg">
<g filter="url(#filter0_d_1_92)">
<rect x="4" width="80" height="80" rx="17" fill="#D9D4EF"/>
</g>
<path d="M23.014 30.0562C17.9416 38.8585 21.1662 52.2165 26.7755 60.3159C29.5755 64.3652 32.4102 68 36.2929 68C36.3661 68 36.4395 67.9986 36.5146 67.9957C38.3388 67.9229 39.657 67.3613 40.9316 66.8185C42.3626 66.2087 43.8425 65.5782 46.1638 65.5782C48.3722 65.5782 49.7815 66.1882 51.1444 66.778C52.4876 67.3591 53.8711 67.9603 55.9155 67.9219C60.289 67.8405 62.9742 63.9182 65.3433 60.4581C67.8155 56.8453 69.0557 53.3376 69.4741 51.9971L69.491 51.9438C69.5707 51.7056 69.4582 51.4455 69.2298 51.3407C69.2235 51.3377 69.2003 51.3281 69.1938 51.3253C68.4236 51.0104 61.6678 48.0133 61.5968 39.8447C61.5309 33.2081 66.6649 29.6937 67.6946 29.0567L67.7426 29.0268C67.8541 28.955 67.9318 28.8411 67.9582 28.7108C67.9845 28.5808 67.957 28.4455 67.8822 28.3361C64.3385 23.1501 58.907 22.3685 56.7203 22.2745C56.403 22.2428 56.0754 22.2269 55.7465 22.2269C53.1781 22.2269 50.7177 23.1969 48.741 23.9763C47.3766 24.5144 46.198 24.979 45.3852 24.979C44.4718 24.979 43.2866 24.5087 41.914 23.9641C40.0786 23.2357 37.9983 22.4102 35.796 22.4102C35.7435 22.4102 35.6917 22.4108 35.6408 22.4118C30.5201 22.4872 25.6816 25.4167 23.014 30.0562Z" fill="#341950"/>
<path d="M56.7248 8.00041C53.6239 8.1267 49.9041 10.0355 47.6807 12.6397C45.7912 14.8286 43.9454 18.4782 44.4317 22.1569C44.4622 22.387 44.6494 22.5647 44.881 22.5826C45.0903 22.5989 45.3039 22.6072 45.5168 22.6074C48.5488 22.6074 51.8197 20.9299 54.0535 18.2289C56.4045 15.3769 57.5933 11.7167 57.2337 8.43811C57.2054 8.1812 56.9793 7.99038 56.7248 8.00041Z" fill="#341950"/>
<defs>
<filter id="filter0_d_1_92" x="0" y="0" width="88" height="88" filterUnits="userSpaceOnUse" color-interpolation-filters="sRGB">
<feFlood flood-opacity="0" result="BackgroundImageFix"/>
<feColorMatrix in="SourceAlpha" type="matrix" values="0 0 0 0 0 0 0 0 0 0 0 0 0 0 0 0 0 0 127 0" result="hardAlpha"/>
<feOffset dy="4"/>
<feGaussianBlur stdDeviation="2"/>
<feComposite in2="hardAlpha" operator="out"/>
<feColorMatrix type="matrix" values="0 0 0 0 0 0 0 0 0 0 0 0 0 0 0 0 0 0 0.25 0"/>
<feBlend mode="normal" in2="BackgroundImageFix" result="effect1_dropShadow_1_92"/>
<feBlend mode="normal" in="SourceGraphic" in2="effect1_dropShadow_1_92" result="shape"/>
</filter>
</defs>
</svg>
